<svg width="192" height="192" viewBox="0 0 192 192" fill="none" xmlns="http://www.w3.org/2000/svg">
<path d="M89.221 0.437347C76.7125 1.35579 64.4228 4.76718 53.139 10.4966C25.5417 24.4045 6.69157 50.1649 1.53075 80.9111C0.524832 86.6843 0.174946 99.2802 0.830982 105.447C2.75536 123.816 10.1467 141.748 21.6055 156.005C36.257 174.156 57.6 186.577 80.9112 190.469C86.6405 191.431 100.111 191.825 105.841 191.169C139.736 187.32 167.814 167.464 182.422 137.112C188.764 123.947 191.65 111.176 191.694 96.2187C191.694 77.8934 187.32 61.9736 177.917 46.3599C171.007 34.8574 160.467 23.836 149.358 16.4009C135.187 6.95396 119.88 1.79315 102.342 0.437347C95.9563 -0.0437469 96.0437 -0.0437469 89.221 0.437347ZM106.278 9.18449C121.892 11.1526 136.456 17.1007 149.226 26.7225C153.862 30.2214 161.779 38.1376 165.277 42.7736C174.943 55.5444 180.847 70.0647 182.772 85.7221C183.472 91.1016 183.34 102.036 182.553 107.634C176.692 149.664 142.054 181.197 99.7176 183.078C78.5932 184.04 57.7312 177.13 41.1116 163.703C37.2191 160.554 29.8715 153.075 27.0724 149.358C19.1563 139.036 13.2957 126.396 10.759 114.282C7.26014 97.4433 8.52848 80.4301 14.5203 64.8601C25.979 35.0323 52.8328 13.733 84.41 9.40317C89.5708 8.7034 101.336 8.57219 106.278 9.18449Z" fill="white"/>
<path d="M48.7654 47.9344C42.9048 49.2027 39.231 51.5644 37.3503 55.3695C36.738 56.6378 36.5194 57.9936 36.5194 60.7927V64.5102L55.2383 105.841C65.5599 128.583 74.6569 148.22 75.5317 149.489C80.2551 156.443 88.7836 160.073 99.0615 159.504C103.566 159.242 107.021 158.411 109.908 156.924C112.27 155.743 115.462 152.682 116.206 150.976C117.387 148.133 115.375 145.203 112.182 145.203C111.395 145.203 110.302 145.902 108.727 147.39C105.972 149.97 103.785 150.845 99.0178 151.195C90.2269 151.807 84.1476 148.877 81.0424 142.491C75.7503 131.557 44.4793 61.6674 44.4793 60.7052C44.4793 57.3813 47.6282 55.9818 55.7631 55.6756C64.1604 55.3257 67.7467 56.3316 71.333 59.9617C73.1262 61.7986 73.826 63.2419 77.9809 73.3449C80.5175 79.5553 87.0779 96.0437 92.5449 109.995C98.0118 123.947 102.998 136.106 103.61 136.98C105.884 140.217 109.952 141.966 114.194 141.573C117.299 141.31 119.792 140.042 121.804 137.68C124.166 134.881 155.656 65.2537 156.005 62.0173C156.312 59.087 155.656 56.6378 153.819 53.9262C150.932 49.6401 145.684 47.7157 135.581 47.3658C128.627 47.1034 124.603 47.8032 120.405 49.9025C117.124 51.5644 113.144 55.4132 111.657 58.3435C111.045 59.5244 107.721 67.6592 104.266 76.4064C98.2743 91.4515 97.9681 92.4574 98.4055 93.8569C98.974 95.4752 100.68 96.656 102.517 96.656C104.922 96.656 105.841 94.9941 112.576 77.9809C119.749 59.8305 120.142 59.2182 124.997 56.9439C127.359 55.8068 127.84 55.7631 134.269 55.7631C139.473 55.7631 141.616 55.938 143.541 56.5503C146.252 57.3813 147.827 58.9121 147.827 60.6615C147.827 62.061 116.118 132.038 115.156 132.782C113.932 133.7 111.789 133.525 110.783 132.388C110.258 131.863 105.884 121.279 101.03 108.902C89.9207 80.5175 82.6169 62.4547 80.8674 58.9558C78.1121 53.4451 72.4264 49.2902 65.8223 47.8906C61.8861 47.0597 52.7891 47.1034 48.7654 47.9344Z" fill="white"/>
</svg>
